<svg viewBox="0 0 299.99999999999994 208.96410871909143" height="208.96410871909143" width="299.99999999999994" style="width: 300px; height: 208.964px; position: absolute; top: 50%; left: 50%; transform: translate(-50%, -50%) scale(0.947531); z-index: 0; cursor: pointer;"><defs id="SvgjsDefs1358"></defs><g id="SvgjsG1359" featurekey="e7LhAk-0" transform="matrix(1.5,0,0,1.5,75,0)" fill="#ffffff"><rect xmlns="http://www.w3.org/2000/svg" style="" width="100" height="100" fill="none"></rect><path xmlns="http://www.w3.org/2000/svg" d="M93,68H83v-8.459C90.959,49.397,95,39.124,95,29C95,16.318,84.682,6,72,6c-10.347,0-19.119,6.868-22,16.284  C47.12,12.868,38.347,6,28,6C16.584,6,7.088,14.361,5.305,25.281l-0.012,0.012c-0.323,0.323-0.363,0.805-0.152,1.186  C5.05,27.307,5,28.147,5,29c0,0.872,0.036,1.735,0.093,2.594c-0.134,0.298-0.102,0.638,0.072,0.92  c1.124,12.431,8.048,23.398,16.112,32.169c0.007,0.007,0.009,0.017,0.016,0.023c0.004,0.004,0.011,0.006,0.015,0.01  C33.58,78.051,48.464,86.301,49.521,86.878C49.67,86.959,49.835,87,50,87s0.33-0.041,0.479-0.122  c0.123-0.067,2.781-1.526,6.791-4.206C57.452,82.871,57.709,83,58,83h10v10c0,0.553,0.447,1,1,1h13c0.553,0,1-0.447,1-1V83h10  c0.553,0,1-0.447,1-1V69C94,68.447,93.553,68,93,68z M86.586,70L70,86.586V82c0-0.169-0.053-0.32-0.126-0.46L81.54,69.874  C81.68,69.947,81.831,70,82,70H86.586z M62.414,81L81,62.414v5.172L67.586,81H62.414z M59,81v-0.029v-3.557L66.414,70H69  c0.553,0,1-0.447,1-1v-2.586L77.414,59H81v0.201v0.385L59.586,81H59z M59,74.586V70h4.586L59,74.586z M70,63.586V59h4.586L70,63.586  z M50.001,84.852c-0.897-0.516-2.997-1.757-5.807-3.631l2.513-2.514c0.391-0.391,0.391-1.023,0-1.414s-1.023-0.391-1.414,0  l-2.783,2.783c-1.293-0.893-2.695-1.895-4.172-3l3.369-3.369c0.391-0.391,0.391-1.023,0-1.414s-1.023-0.391-1.414,0l-3.561,3.561  c-1.115-0.861-2.261-1.777-3.427-2.744l3.402-3.402c0.391-0.391,0.391-1.023,0-1.414s-1.023-0.391-1.414,0l-3.522,3.521  c-1.253-1.074-2.517-2.205-3.781-3.391l3.717-3.717c0.391-0.391,0.391-1.023,0-1.414s-1.023-0.391-1.414,0l-3.751,3.752  c-1.029-1.003-2.049-2.045-3.056-3.117l4.221-4.221c0.391-0.391,0.391-1.023,0-1.414s-1.023-0.391-1.414,0l-4.16,4.16  c-0.97-1.08-1.926-2.184-2.849-3.324l4.422-4.422c0.391-0.391,0.391-1.023,0-1.414s-1.023-0.391-1.414,0l-4.249,4.249  c-0.91-1.187-1.781-2.405-2.615-3.65c0.099-0.048,0.196-0.103,0.278-0.185l4.5-4.5c0.391-0.391,0.391-1.023,0-1.414  s-1.023-0.391-1.414,0l-4.445,4.445c-0.683-1.092-1.32-2.209-1.929-3.34c0.103-0.048,0.203-0.106,0.288-0.191l5-5  c0.391-0.391,0.391-1.023,0-1.414s-1.023-0.391-1.414,0l-4.805,4.805c-0.577-1.177-1.102-2.375-1.582-3.59l6.8-6.8  c0.391-0.391,0.391-1.023,0-1.414s-1.023-0.391-1.414,0l-6.144,6.144c-0.439-1.295-0.833-2.605-1.144-3.938  c0.243-0.001,0.487-0.09,0.679-0.27l8-7.5c0.403-0.377,0.423-1.011,0.045-1.414c-0.377-0.402-1.011-0.423-1.414-0.045l-7.708,7.227  c-0.192-1.071-0.347-2.151-0.446-3.245l10.545-10.545c0.391-0.391,0.391-1.023,0-1.414s-1.023-0.391-1.414,0l-9.271,9.271  C7.019,29.375,7,29.189,7,29c0-0.95,0.085-1.877,0.208-2.794l13.499-13.499c0.391-0.391,0.391-1.023,0-1.414s-1.023-0.391-1.414,0  L8.016,22.57C10.739,14.128,18.664,8,28,8c11.58,0,21,9.42,21,21c0,0.552,0.448,1,1,1s1-0.448,1-1c0-11.58,9.42-21,21-21  s21,9.42,21,21c0,9.26-3.572,18.696-10.621,28.074C82.262,57.026,82.135,57,82,57H69c-0.553,0-1,0.447-1,1v10H58  c-0.553,0-1,0.447-1,1v11.442C53.61,82.746,51.025,84.267,50.001,84.852z M75.414,92L81,86.414V92H75.414z M82,81  c-0.553,0-1,0.447-1,1v1.586L72.586,92H70v-2.586L89.414,70H92v2.586L83.586,81H82z M86.414,81L92,75.414V81H86.414z"></path></g><g id="SvgjsG1360" featurekey="Qg0WB5-0" transform="matrix(2.16708062909356,0,0,2.16708062909356,-3.142268565536972,165.1240685845395)" fill="#ffffff"><path d="M14.47 12.59 q0 1.06 -0.27 2.015 t-0.77 1.78 t-1.195 1.495 t-1.54 1.14 t-1.825 0.725 t-2.03 0.255 l-4.93 0 q-0.18 0 -0.32 -0.08 t-0.14 -0.34 l0 -13.97 q0 -0.21 0.115 -0.34 t0.345 -0.13 l4.93 0 q1.05 0 2.025 0.26 t1.82 0.74 t1.545 1.15 t1.195 1.5 t0.77 1.79 t0.275 2.01 z M5.32 8.73 l0 7.69 l0.84 0 q0.23 0 0.45 -0.015 t0.44 -0.035 q0.75 -0.06 1.4 -0.365 t1.135 -0.8 t0.76 -1.165 t0.275 -1.46 q0 -0.84 -0.315 -1.545 t-0.855 -1.22 t-1.265 -0.8 t-1.545 -0.285 l-1.32 0 z M16.66 8.08 q0 -0.32 0.18 -0.55 t0.56 -0.23 l2.29 0 q0.12 0 0.26 0.055 t0.26 0.16 t0.205 0.245 t0.085 0.32 l0 11.15 q0 0.38 -0.21 0.575 t-0.6 0.195 l-2.29 0 q-0.74 0 -0.74 -0.77 l0 -11.15 z M16.66 3.0199999999999996 q0 -0.42 0.18 -0.595 t0.56 -0.175 l2.32 0 q0.35 0 0.565 0.175 t0.215 0.595 l0 1.95 q0 0.12 -0.055 0.26 t-0.155 0.27 t-0.245 0.215 t-0.325 0.085 l-2.32 0 q-0.74 0 -0.74 -0.83 l0 -1.95 z M33.540000000000006 18.48 q-0.88 0.81 -1.98 1.265 t-2.33 0.455 q-1.37 0 -2.59 -0.5 t-2.14 -1.385 t-1.46 -2.085 t-0.54 -2.61 q0 -0.88 0.215 -1.705 t0.61 -1.545 t0.96 -1.325 t1.265 -1.035 t1.52 -0.67 t1.73 -0.24 q0.83 0 1.61 0.22 t1.465 0.62 t1.255 0.96 t0.98 1.225 t0.635 1.42 t0.225 1.555 q0 0.52 -0.015 0.85 t-0.155 0.525 t-0.465 0.27 t-0.955 0.075 l-7.2 0 q0.1 0.64 0.405 1.07 t0.705 0.685 t0.85 0.365 t0.85 0.11 q0.36 0 0.74 -0.075 t0.735 -0.2 t0.65 -0.29 t0.475 -0.345 q0.16 -0.13 0.275 -0.195 t0.245 -0.065 t0.265 0.09 t0.305 0.26 l1.06 1.2 q0.11 0.13 0.14 0.235 t0.03 0.215 q0 0.2 -0.11 0.345 t-0.26 0.255 z M28.730000000000004 10.15 q-0.39 0 -0.755 0.155 t-0.685 0.415 t-0.575 0.59 t-0.415 0.67 l5.11 0 q-0.21 -0.39 -0.455 -0.72 t-0.56 -0.58 t-0.72 -0.39 t-0.945 -0.14 z M37.83 5.32 q0 -0.31 0.205 -0.465 t0.585 -0.295 l2.27 -0.79 q0.05 -0.01 0.095 -0.01 l0.085 0 q0.37 0 0.495 0.215 t0.125 0.565 l-0.01 3.15 l1.67 0 q0.32 0 0.52 0.19 t0.2 0.57 l0 1.93 q0 0.42 -0.2 0.615 t-0.52 0.195 l-1.67 0 l0.01 8.04 q0 0.38 -0.22 0.575 t-0.61 0.195 l-2.26 0 q-0.77 0 -0.77 -0.77 l-0.01 -8.04 l-0.73 0 q-0.77 0 -0.77 -0.81 l0 -1.93 q0 -0.76 0.77 -0.76 l0.73 0 z M52.14000000000001 5.609999999999999 q0 -0.21 0.11 -0.335 t0.33 -0.125 l6.39 0 q0.69 0 1.3 0.19 t1.12 0.525 t0.92 0.8 t0.695 1.005 t0.435 1.135 t0.15 1.205 q0 0.9 -0.325 1.76 t-0.925 1.53 t-1.44 1.085 t-1.86 0.425 l-3.03 0 l0 4.76 q0 0.43 -0.46 0.43 l-2.97 0 q-0.2 0 -0.32 -0.105 t-0.12 -0.325 l0 -13.96 z M59.67 9.99 q0 -0.3 -0.105 -0.6 t-0.305 -0.535 t-0.485 -0.385 t-0.645 -0.15 l-2.12 0 l0 3.34 l2.12 0 q0.36 0 0.65 -0.145 t0.485 -0.375 t0.3 -0.53 t0.105 -0.62 z M65.35000000000001 4.289999999999999 q0 -0.32 0.16 -0.54 t0.55 -0.22 l2.45 0 q0.1 0 0.21 0.055 t0.205 0.155 t0.16 0.24 t0.065 0.31 l0 14.94 q0 0.38 -0.215 0.575 t-0.555 0.195 l-2.32 0 q-0.39 0 -0.55 -0.195 t-0.16 -0.575 l0 -14.94 z M84.62 19.26 q0 0.17 -0.06 0.325 t-0.2 0.245 q-0.11 0.11 -0.26 0.14 t-0.26 0.03 l-1.97 0 q-0.21 0 -0.34 -0.055 t-0.21 -0.155 t-0.135 -0.245 t-0.115 -0.315 l-0.29 -0.75 q-0.27 0.27 -0.59 0.575 t-0.705 0.565 t-0.835 0.435 t-0.96 0.175 q-0.91 0 -1.745 -0.23 t-1.56 -0.655 t-1.315 -1.02 t-1.015 -1.325 t-0.655 -1.575 t-0.23 -1.765 q0 -1.39 0.51 -2.585 t1.39 -2.08 t2.07 -1.39 t2.55 -0.505 q0.62 0 1.14 0.185 t0.945 0.485 t0.77 0.68 t0.615 0.77 l0.39 -1.21 q0.1 -0.25 0.165 -0.405 t0.14 -0.23 t0.185 -0.1 t0.31 -0.025 l1.49 0 q0.11 0 0.26 0.03 t0.26 0.14 q0.14 0.11 0.2 0.25 t0.06 0.32 l0 11.27 z M74.77000000000001 13.66 q0 0.66 0.205 1.235 t0.585 0.995 t0.915 0.665 t1.185 0.245 q0.67 0 1.245 -0.245 t1 -0.665 t0.665 -0.995 t0.24 -1.235 q0 -0.64 -0.24 -1.22 t-0.665 -1.02 t-1 -0.695 t-1.245 -0.255 q-0.65 0 -1.185 0.255 t-0.915 0.695 t-0.585 1.02 t-0.205 1.22 z M87.28 7.470000000000001 q0.13 -0.11 0.275 -0.14 t0.275 -0.03 l1.51 0 q0.18 0 0.31 0.065 t0.22 0.175 t0.145 0.25 t0.105 0.29 l0.31 1.28 q0.15 -0.31 0.435 -0.705 t0.725 -0.74 t1.045 -0.58 t1.405 -0.235 q1.14 0 2.07 0.44 t1.585 1.2 t1.015 1.775 t0.36 2.165 l0 6.55 q0 0.38 -0.165 0.575 t-0.525 0.195 l-2.31 0 q-0.43 0 -0.59 -0.145 t-0.16 -0.565 l0 -6.51 q0 -0.43 -0.195 -0.815 t-0.515 -0.68 t-0.725 -0.465 t-0.825 -0.17 q-0.36 0 -0.735 0.16 t-0.69 0.445 t-0.53 0.67 t-0.245 0.835 l0 6.5 q0 0.17 -0.065 0.34 t-0.195 0.26 q-0.13 0.08 -0.245 0.11 t-0.265 0.03 l-2.26 0 q-0.43 0 -0.62 -0.21 t-0.19 -0.56 l0 -11.19 q0 -0.19 0.085 -0.35 t0.235 -0.25 z M101.73 7.470000000000001 q0.13 -0.11 0.275 -0.14 t0.275 -0.03 l1.51 0 q0.18 0 0.31 0.065 t0.22 0.175 t0.145 0.25 t0.105 0.29 l0.31 1.28 q0.15 -0.31 0.435 -0.705 t0.725 -0.74 t1.045 -0.58 t1.405 -0.235 q1.14 0 2.07 0.44 t1.585 1.2 t1.015 1.775 t0.36 2.165 l0 6.55 q0 0.38 -0.165 0.575 t-0.525 0.195 l-2.31 0 q-0.43 0 -0.59 -0.145 t-0.16 -0.565 l0 -6.51 q0 -0.43 -0.195 -0.815 t-0.515 -0.68 t-0.725 -0.465 t-0.825 -0.17 q-0.36 0 -0.735 0.16 t-0.69 0.445 t-0.53 0.67 t-0.245 0.835 l0 6.5 q0 0.17 -0.065 0.34 t-0.195 0.26 q-0.13 0.08 -0.245 0.11 t-0.265 0.03 l-2.26 0 q-0.43 0 -0.62 -0.21 t-0.19 -0.56 l0 -11.19 q0 -0.19 0.085 -0.35 t0.235 -0.25 z M126.36000000000001 18.48 q-0.88 0.81 -1.98 1.265 t-2.33 0.455 q-1.37 0 -2.59 -0.5 t-2.14 -1.385 t-1.46 -2.085 t-0.54 -2.61 q0 -0.88 0.215 -1.705 t0.61 -1.545 t0.96 -1.325 t1.265 -1.035 t1.52 -0.67 t1.73 -0.24 q0.83 0 1.61 0.22 t1.465 0.62 t1.255 0.96 t0.98 1.225 t0.635 1.42 t0.225 1.555 q0 0.52 -0.015 0.85 t-0.155 0.525 t-0.465 0.27 t-0.955 0.075 l-7.2 0 q0.1 0.64 0.405 1.07 t0.705 0.685 t0.85 0.365 t0.85 0.11 q0.36 0 0.74 -0.075 t0.735 -0.2 t0.65 -0.29 t0.475 -0.345 q0.16 -0.13 0.275 -0.195 t0.245 -0.065 t0.265 0.09 t0.305 0.26 l1.06 1.2 q0.11 0.13 0.14 0.235 t0.03 0.215 q0 0.2 -0.11 0.345 t-0.26 0.255 z M121.55000000000001 10.15 q-0.39 0 -0.755 0.155 t-0.685 0.415 t-0.575 0.59 t-0.415 0.67 l5.11 0 q-0.21 -0.39 -0.455 -0.72 t-0.56 -0.58 t-0.72 -0.39 t-0.945 -0.14 z M129.88 8.04 q0 -0.17 0.075 -0.325 t0.185 -0.245 q0.26 -0.17 0.54 -0.17 l1.51 0 q0.19 0 0.3 0.07 t0.185 0.18 t0.13 0.25 t0.135 0.28 q0.02 0.04 0.08 0.195 t0.13 0.34 t0.135 0.35 t0.085 0.215 q0.3 -0.33 0.575 -0.695 t0.585 -0.675 t0.69 -0.51 t0.9 -0.2 q0.54 0 0.965 0.08 t0.805 0.235 t0.755 0.395 t0.815 0.56 q0.69 0.37 0.26 1.1 l-0.91 1.55 q-0.2 0.3 -0.49 0.37 t-0.63 -0.09 q-0.43 -0.42 -0.875 -0.625 t-1.015 -0.205 q-0.39 0 -0.685 0.11 t-0.535 0.31 t-0.45 0.48 t-0.42 0.62 l0 7.24 q0 0.38 -0.185 0.575 t-0.615 0.195 l-2.25 0 q-0.78 0 -0.78 -0.77 l0 -11.19 z"></path></g></svg>